<mxfile host="Electron" agent="Mozilla/5.0 (X11; Linux x86_64) AppleWebKit/537.36 (KHTML, like Gecko) draw.io/27.0.9 Chrome/134.0.6998.205 Electron/35.4.0 Safari/537.36" version="27.0.9">
  <diagram name="PÃ¡gina-1" id="6NMDYBR00F74SSDbkT-3">
    <mxGraphModel dx="831" dy="628" grid="1" gridSize="10" guides="1" tooltips="1" connect="1" arrows="1" fold="1" page="1" pageScale="1" pageWidth="827" pageHeight="1169" math="0" shadow="0">
      <root>
        <mxCell id="0" />
        <mxCell id="1" parent="0" />
        <mxCell id="yxyX-bRQcgZ53iR8kHNS-60" style="edgeStyle=orthogonalEdgeStyle;rounded=0;orthogonalLoop=1;jettySize=auto;html=1;exitX=1;exitY=0;exitDx=0;exitDy=0;entryX=0.5;entryY=1;entryDx=0;entryDy=0;endArrow=none;startFill=0;" edge="1" parent="1" source="yxyX-bRQcgZ53iR8kHNS-1" target="yxyX-bRQcgZ53iR8kHNS-59">
          <mxGeometry relative="1" as="geometry" />
        </mxCell>
        <mxCell id="yxyX-bRQcgZ53iR8kHNS-1" value="Manage" style="rhombus;whiteSpace=wrap;html=1;labelBackgroundColor=none;fillColor=#fad7ac;strokeColor=#b46504;fontColor=#000000;" vertex="1" parent="1">
          <mxGeometry x="360" y="310" width="80" height="80" as="geometry" />
        </mxCell>
        <mxCell id="yxyX-bRQcgZ53iR8kHNS-7" style="edgeStyle=orthogonalEdgeStyle;rounded=0;orthogonalLoop=1;jettySize=auto;html=1;entryX=0;entryY=0.5;entryDx=0;entryDy=0;endArrow=none;startFill=0;" edge="1" parent="1" source="yxyX-bRQcgZ53iR8kHNS-2" target="yxyX-bRQcgZ53iR8kHNS-1">
          <mxGeometry relative="1" as="geometry">
            <Array as="points">
              <mxPoint x="315" y="330" />
              <mxPoint x="315" y="350" />
            </Array>
          </mxGeometry>
        </mxCell>
        <mxCell id="yxyX-bRQcgZ53iR8kHNS-15" value="Min. Max.&lt;div&gt;(1, 1)&lt;/div&gt;" style="edgeLabel;html=1;align=center;verticalAlign=middle;resizable=0;points=[];" vertex="1" connectable="0" parent="yxyX-bRQcgZ53iR8kHNS-7">
          <mxGeometry x="0.2308" y="1" relative="1" as="geometry">
            <mxPoint x="-6" as="offset" />
          </mxGeometry>
        </mxCell>
        <mxCell id="yxyX-bRQcgZ53iR8kHNS-18" style="edgeStyle=orthogonalEdgeStyle;rounded=0;orthogonalLoop=1;jettySize=auto;html=1;entryX=0.5;entryY=0;entryDx=0;entryDy=0;endArrow=none;startFill=0;" edge="1" parent="1" source="yxyX-bRQcgZ53iR8kHNS-2" target="yxyX-bRQcgZ53iR8kHNS-17">
          <mxGeometry relative="1" as="geometry" />
        </mxCell>
        <mxCell id="yxyX-bRQcgZ53iR8kHNS-20" value="Min. Max.&lt;div&gt;(1, 1)&lt;/div&gt;" style="edgeLabel;html=1;align=center;verticalAlign=middle;resizable=0;points=[];" vertex="1" connectable="0" parent="yxyX-bRQcgZ53iR8kHNS-18">
          <mxGeometry x="0.1429" y="1" relative="1" as="geometry">
            <mxPoint as="offset" />
          </mxGeometry>
        </mxCell>
        <mxCell id="yxyX-bRQcgZ53iR8kHNS-39" style="edgeStyle=orthogonalEdgeStyle;rounded=0;orthogonalLoop=1;jettySize=auto;html=1;entryX=0.5;entryY=1;entryDx=0;entryDy=0;endArrow=none;startFill=0;" edge="1" parent="1" source="yxyX-bRQcgZ53iR8kHNS-2" target="yxyX-bRQcgZ53iR8kHNS-28">
          <mxGeometry relative="1" as="geometry" />
        </mxCell>
        <mxCell id="yxyX-bRQcgZ53iR8kHNS-41" style="edgeStyle=orthogonalEdgeStyle;rounded=0;orthogonalLoop=1;jettySize=auto;html=1;exitX=0.75;exitY=0;exitDx=0;exitDy=0;entryX=0.5;entryY=1;entryDx=0;entryDy=0;endArrow=none;startFill=0;" edge="1" parent="1" source="yxyX-bRQcgZ53iR8kHNS-2" target="yxyX-bRQcgZ53iR8kHNS-29">
          <mxGeometry relative="1" as="geometry" />
        </mxCell>
        <mxCell id="yxyX-bRQcgZ53iR8kHNS-42" style="edgeStyle=orthogonalEdgeStyle;rounded=0;orthogonalLoop=1;jettySize=auto;html=1;exitX=0;exitY=0;exitDx=0;exitDy=0;entryX=0.5;entryY=1;entryDx=0;entryDy=0;endArrow=none;startFill=0;" edge="1" parent="1" source="yxyX-bRQcgZ53iR8kHNS-2" target="yxyX-bRQcgZ53iR8kHNS-25">
          <mxGeometry relative="1" as="geometry" />
        </mxCell>
        <mxCell id="yxyX-bRQcgZ53iR8kHNS-43" style="edgeStyle=orthogonalEdgeStyle;rounded=0;orthogonalLoop=1;jettySize=auto;html=1;exitX=0;exitY=0.75;exitDx=0;exitDy=0;entryX=1;entryY=0.5;entryDx=0;entryDy=0;endArrow=none;startFill=0;" edge="1" parent="1" source="yxyX-bRQcgZ53iR8kHNS-2" target="yxyX-bRQcgZ53iR8kHNS-23">
          <mxGeometry relative="1" as="geometry" />
        </mxCell>
        <mxCell id="yxyX-bRQcgZ53iR8kHNS-44" style="edgeStyle=orthogonalEdgeStyle;rounded=0;orthogonalLoop=1;jettySize=auto;html=1;exitX=0;exitY=0.5;exitDx=0;exitDy=0;entryX=1;entryY=0.5;entryDx=0;entryDy=0;endArrow=none;startFill=0;" edge="1" parent="1" source="yxyX-bRQcgZ53iR8kHNS-2" target="yxyX-bRQcgZ53iR8kHNS-22">
          <mxGeometry relative="1" as="geometry" />
        </mxCell>
        <mxCell id="yxyX-bRQcgZ53iR8kHNS-45" style="edgeStyle=orthogonalEdgeStyle;rounded=0;orthogonalLoop=1;jettySize=auto;html=1;exitX=0;exitY=0.25;exitDx=0;exitDy=0;entryX=1;entryY=0.5;entryDx=0;entryDy=0;endArrow=none;startFill=0;" edge="1" parent="1" source="yxyX-bRQcgZ53iR8kHNS-2" target="yxyX-bRQcgZ53iR8kHNS-24">
          <mxGeometry relative="1" as="geometry" />
        </mxCell>
        <mxCell id="yxyX-bRQcgZ53iR8kHNS-62" style="edgeStyle=orthogonalEdgeStyle;rounded=0;orthogonalLoop=1;jettySize=auto;html=1;exitX=1;exitY=0;exitDx=0;exitDy=0;entryX=0.5;entryY=1;entryDx=0;entryDy=0;endArrow=none;startFill=0;" edge="1" parent="1" source="yxyX-bRQcgZ53iR8kHNS-2" target="yxyX-bRQcgZ53iR8kHNS-61">
          <mxGeometry relative="1" as="geometry">
            <Array as="points">
              <mxPoint x="270" y="320" />
              <mxPoint x="290" y="320" />
              <mxPoint x="290" y="250" />
              <mxPoint x="400" y="250" />
            </Array>
          </mxGeometry>
        </mxCell>
        <mxCell id="yxyX-bRQcgZ53iR8kHNS-65" value="Min. Max.&lt;div&gt;(1, 1)&lt;/div&gt;" style="edgeLabel;html=1;align=center;verticalAlign=middle;resizable=0;points=[];" vertex="1" connectable="0" parent="yxyX-bRQcgZ53iR8kHNS-62">
          <mxGeometry x="0.599" relative="1" as="geometry">
            <mxPoint x="-12" as="offset" />
          </mxGeometry>
        </mxCell>
        <mxCell id="yxyX-bRQcgZ53iR8kHNS-87" style="edgeStyle=orthogonalEdgeStyle;rounded=0;orthogonalLoop=1;jettySize=auto;html=1;exitX=0.25;exitY=1;exitDx=0;exitDy=0;endArrow=none;startFill=0;shape=link;" edge="1" parent="1" source="yxyX-bRQcgZ53iR8kHNS-2">
          <mxGeometry relative="1" as="geometry">
            <mxPoint x="80" y="480" as="targetPoint" />
            <Array as="points">
              <mxPoint x="190" y="340" />
              <mxPoint x="190" y="410" />
              <mxPoint x="80" y="410" />
            </Array>
          </mxGeometry>
        </mxCell>
        <mxCell id="yxyX-bRQcgZ53iR8kHNS-2" value="EMPLOYEE" style="rounded=0;whiteSpace=wrap;html=1;fillColor=#0050ef;fontColor=#ffffff;strokeColor=#001DBC;" vertex="1" parent="1">
          <mxGeometry x="180" y="310" width="90" height="30" as="geometry" />
        </mxCell>
        <mxCell id="yxyX-bRQcgZ53iR8kHNS-8" style="edgeStyle=orthogonalEdgeStyle;rounded=0;orthogonalLoop=1;jettySize=auto;html=1;entryX=1;entryY=0.5;entryDx=0;entryDy=0;endArrow=none;startFill=0;shape=link;" edge="1" parent="1" source="yxyX-bRQcgZ53iR8kHNS-3" target="yxyX-bRQcgZ53iR8kHNS-1">
          <mxGeometry relative="1" as="geometry">
            <Array as="points">
              <mxPoint x="490" y="330" />
              <mxPoint x="490" y="350" />
            </Array>
          </mxGeometry>
        </mxCell>
        <mxCell id="yxyX-bRQcgZ53iR8kHNS-16" value="Min. Max.&lt;div&gt;(1, 1)&lt;/div&gt;" style="edgeLabel;html=1;align=center;verticalAlign=middle;resizable=0;points=[];" vertex="1" connectable="0" parent="yxyX-bRQcgZ53iR8kHNS-8">
          <mxGeometry x="0.2718" relative="1" as="geometry">
            <mxPoint x="-1" y="-4" as="offset" />
          </mxGeometry>
        </mxCell>
        <mxCell id="yxyX-bRQcgZ53iR8kHNS-54" style="edgeStyle=orthogonalEdgeStyle;rounded=0;orthogonalLoop=1;jettySize=auto;html=1;exitX=0;exitY=0;exitDx=0;exitDy=0;entryX=1;entryY=1;entryDx=0;entryDy=0;endArrow=none;startFill=0;" edge="1" parent="1" source="yxyX-bRQcgZ53iR8kHNS-3" target="yxyX-bRQcgZ53iR8kHNS-48">
          <mxGeometry relative="1" as="geometry" />
        </mxCell>
        <mxCell id="yxyX-bRQcgZ53iR8kHNS-55" style="edgeStyle=orthogonalEdgeStyle;rounded=0;orthogonalLoop=1;jettySize=auto;html=1;exitX=0.75;exitY=0;exitDx=0;exitDy=0;entryX=0;entryY=0.5;entryDx=0;entryDy=0;endArrow=none;startFill=0;" edge="1" parent="1" source="yxyX-bRQcgZ53iR8kHNS-3" target="yxyX-bRQcgZ53iR8kHNS-52">
          <mxGeometry relative="1" as="geometry" />
        </mxCell>
        <mxCell id="yxyX-bRQcgZ53iR8kHNS-57" style="edgeStyle=orthogonalEdgeStyle;rounded=0;orthogonalLoop=1;jettySize=auto;html=1;entryX=0.5;entryY=1;entryDx=0;entryDy=0;endArrow=none;startFill=0;" edge="1" parent="1" source="yxyX-bRQcgZ53iR8kHNS-3" target="yxyX-bRQcgZ53iR8kHNS-50">
          <mxGeometry relative="1" as="geometry" />
        </mxCell>
        <mxCell id="yxyX-bRQcgZ53iR8kHNS-3" value="DEPARTMENT" style="rounded=0;whiteSpace=wrap;html=1;fillColor=#0050ef;fontColor=#ffffff;strokeColor=#001DBC;" vertex="1" parent="1">
          <mxGeometry x="540" y="310" width="90" height="30" as="geometry" />
        </mxCell>
        <mxCell id="yxyX-bRQcgZ53iR8kHNS-19" style="edgeStyle=orthogonalEdgeStyle;rounded=0;orthogonalLoop=1;jettySize=auto;html=1;entryX=0.5;entryY=1;entryDx=0;entryDy=0;endArrow=none;startFill=0;" edge="1" parent="1" source="yxyX-bRQcgZ53iR8kHNS-4" target="yxyX-bRQcgZ53iR8kHNS-17">
          <mxGeometry relative="1" as="geometry" />
        </mxCell>
        <mxCell id="yxyX-bRQcgZ53iR8kHNS-21" value="Min. Max.&lt;div&gt;(0, N)&lt;/div&gt;" style="edgeLabel;html=1;align=center;verticalAlign=middle;resizable=0;points=[];" vertex="1" connectable="0" parent="yxyX-bRQcgZ53iR8kHNS-19">
          <mxGeometry x="-0.05" relative="1" as="geometry">
            <mxPoint as="offset" />
          </mxGeometry>
        </mxCell>
        <mxCell id="yxyX-bRQcgZ53iR8kHNS-4" value="DEPENDENT" style="rounded=0;whiteSpace=wrap;html=1;fillColor=#0050ef;fontColor=#ffffff;strokeColor=#001DBC;" vertex="1" parent="1">
          <mxGeometry x="180" y="570" width="90" height="30" as="geometry" />
        </mxCell>
        <mxCell id="yxyX-bRQcgZ53iR8kHNS-79" style="edgeStyle=orthogonalEdgeStyle;rounded=0;orthogonalLoop=1;jettySize=auto;html=1;exitX=0.5;exitY=1;exitDx=0;exitDy=0;entryX=0.5;entryY=0;entryDx=0;entryDy=0;endArrow=none;startFill=0;" edge="1" parent="1" source="yxyX-bRQcgZ53iR8kHNS-5" target="yxyX-bRQcgZ53iR8kHNS-77">
          <mxGeometry relative="1" as="geometry" />
        </mxCell>
        <mxCell id="yxyX-bRQcgZ53iR8kHNS-5" value="PROJECT" style="rounded=0;whiteSpace=wrap;html=1;fillColor=#0050ef;fontColor=#ffffff;strokeColor=#001DBC;" vertex="1" parent="1">
          <mxGeometry x="540" y="570" width="90" height="30" as="geometry" />
        </mxCell>
        <mxCell id="yxyX-bRQcgZ53iR8kHNS-11" style="edgeStyle=orthogonalEdgeStyle;rounded=0;orthogonalLoop=1;jettySize=auto;html=1;entryX=0.5;entryY=1;entryDx=0;entryDy=0;endArrow=none;startFill=0;" edge="1" parent="1" source="yxyX-bRQcgZ53iR8kHNS-10" target="yxyX-bRQcgZ53iR8kHNS-3">
          <mxGeometry relative="1" as="geometry" />
        </mxCell>
        <mxCell id="yxyX-bRQcgZ53iR8kHNS-13" value="Min. Max.&lt;div&gt;(1, 1)&lt;/div&gt;" style="edgeLabel;html=1;align=center;verticalAlign=middle;resizable=0;points=[];" vertex="1" connectable="0" parent="yxyX-bRQcgZ53iR8kHNS-11">
          <mxGeometry x="-0.3143" relative="1" as="geometry">
            <mxPoint as="offset" />
          </mxGeometry>
        </mxCell>
        <mxCell id="yxyX-bRQcgZ53iR8kHNS-12" style="edgeStyle=orthogonalEdgeStyle;rounded=0;orthogonalLoop=1;jettySize=auto;html=1;endArrow=none;startFill=0;" edge="1" parent="1" source="yxyX-bRQcgZ53iR8kHNS-10" target="yxyX-bRQcgZ53iR8kHNS-5">
          <mxGeometry relative="1" as="geometry" />
        </mxCell>
        <mxCell id="yxyX-bRQcgZ53iR8kHNS-14" value="Min. Max.&lt;div&gt;(1, N)&lt;/div&gt;" style="edgeLabel;html=1;align=center;verticalAlign=middle;resizable=0;points=[];" vertex="1" connectable="0" parent="yxyX-bRQcgZ53iR8kHNS-12">
          <mxGeometry x="-0.275" y="-3" relative="1" as="geometry">
            <mxPoint x="3" y="11" as="offset" />
          </mxGeometry>
        </mxCell>
        <mxCell id="yxyX-bRQcgZ53iR8kHNS-10" value="Controls" style="rhombus;whiteSpace=wrap;html=1;fillColor=#fad7ac;strokeColor=#b46504;fontColor=#000000;" vertex="1" parent="1">
          <mxGeometry x="545" y="410" width="80" height="80" as="geometry" />
        </mxCell>
        <mxCell id="yxyX-bRQcgZ53iR8kHNS-17" value="Dependent" style="rhombus;whiteSpace=wrap;html=1;fillColor=#fad7ac;strokeColor=#b46504;fontColor=#000000;" vertex="1" parent="1">
          <mxGeometry x="185" y="410" width="80" height="80" as="geometry" />
        </mxCell>
        <mxCell id="yxyX-bRQcgZ53iR8kHNS-22" value="Salary" style="ellipse;whiteSpace=wrap;html=1;fillColor=#f0a30a;fontColor=#000000;strokeColor=#BD7000;" vertex="1" parent="1">
          <mxGeometry x="50" y="320" width="60" height="30" as="geometry" />
        </mxCell>
        <mxCell id="yxyX-bRQcgZ53iR8kHNS-23" value="Sex" style="ellipse;whiteSpace=wrap;html=1;fillColor=#f0a30a;strokeColor=#BD7000;fontColor=#000000;" vertex="1" parent="1">
          <mxGeometry x="80" y="360" width="50" height="30" as="geometry" />
        </mxCell>
        <mxCell id="yxyX-bRQcgZ53iR8kHNS-24" value="Birthday" style="ellipse;whiteSpace=wrap;html=1;fillColor=#f0a30a;fontColor=#000000;strokeColor=#BD7000;" vertex="1" parent="1">
          <mxGeometry x="50" y="280" width="60" height="30" as="geometry" />
        </mxCell>
        <mxCell id="yxyX-bRQcgZ53iR8kHNS-46" style="edgeStyle=orthogonalEdgeStyle;rounded=0;orthogonalLoop=1;jettySize=auto;html=1;exitX=0;exitY=0.5;exitDx=0;exitDy=0;entryX=0.5;entryY=1;entryDx=0;entryDy=0;endArrow=none;startFill=0;" edge="1" parent="1" source="yxyX-bRQcgZ53iR8kHNS-25" target="yxyX-bRQcgZ53iR8kHNS-26">
          <mxGeometry relative="1" as="geometry" />
        </mxCell>
        <mxCell id="yxyX-bRQcgZ53iR8kHNS-47" style="edgeStyle=orthogonalEdgeStyle;rounded=0;orthogonalLoop=1;jettySize=auto;html=1;exitX=1;exitY=0.5;exitDx=0;exitDy=0;entryX=0.5;entryY=1;entryDx=0;entryDy=0;endArrow=none;startFill=0;" edge="1" parent="1" source="yxyX-bRQcgZ53iR8kHNS-25" target="yxyX-bRQcgZ53iR8kHNS-27">
          <mxGeometry relative="1" as="geometry" />
        </mxCell>
        <mxCell id="yxyX-bRQcgZ53iR8kHNS-25" value="Name" style="ellipse;whiteSpace=wrap;html=1;fillColor=#f0a30a;fontColor=#000000;strokeColor=#BD7000;" vertex="1" parent="1">
          <mxGeometry x="90" y="230" width="60" height="30" as="geometry" />
        </mxCell>
        <mxCell id="yxyX-bRQcgZ53iR8kHNS-26" value="First" style="ellipse;whiteSpace=wrap;html=1;fillColor=#e51400;fontColor=#ffffff;strokeColor=#B20000;" vertex="1" parent="1">
          <mxGeometry x="50" y="190" width="60" height="30" as="geometry" />
        </mxCell>
        <mxCell id="yxyX-bRQcgZ53iR8kHNS-27" value="Last" style="ellipse;whiteSpace=wrap;html=1;fillColor=#e51400;fontColor=#ffffff;strokeColor=#B20000;" vertex="1" parent="1">
          <mxGeometry x="130" y="190" width="60" height="30" as="geometry" />
        </mxCell>
        <mxCell id="yxyX-bRQcgZ53iR8kHNS-28" value="SSN" style="ellipse;whiteSpace=wrap;html=1;fontStyle=4;fillColor=#f0a30a;fontColor=#000000;strokeColor=#BD7000;" vertex="1" parent="1">
          <mxGeometry x="170" y="240" width="60" height="30" as="geometry" />
        </mxCell>
        <mxCell id="yxyX-bRQcgZ53iR8kHNS-29" value="Address" style="ellipse;whiteSpace=wrap;html=1;fillColor=#f0a30a;fontColor=#000000;strokeColor=#BD7000;" vertex="1" parent="1">
          <mxGeometry x="210" y="200" width="60" height="30" as="geometry" />
        </mxCell>
        <mxCell id="yxyX-bRQcgZ53iR8kHNS-48" value="Name" style="ellipse;whiteSpace=wrap;html=1;strokeWidth=1;fontStyle=4;fillColor=#f0a30a;fontColor=#000000;strokeColor=#BD7000;" vertex="1" parent="1">
          <mxGeometry x="515" y="260" width="60" height="30" as="geometry" />
        </mxCell>
        <mxCell id="yxyX-bRQcgZ53iR8kHNS-50" value="Location" style="ellipse;whiteSpace=wrap;html=1;fillColor=#f0a30a;fontColor=#000000;strokeColor=#BD7000;" vertex="1" parent="1">
          <mxGeometry x="555" y="230" width="60" height="30" as="geometry" />
        </mxCell>
        <mxCell id="yxyX-bRQcgZ53iR8kHNS-52" value="Number" style="ellipse;whiteSpace=wrap;html=1;fontStyle=4;fillColor=#f0a30a;fontColor=#000000;strokeColor=#BD7000;" vertex="1" parent="1">
          <mxGeometry x="600" y="260" width="60" height="30" as="geometry" />
        </mxCell>
        <mxCell id="yxyX-bRQcgZ53iR8kHNS-59" value="Star_Date" style="ellipse;whiteSpace=wrap;html=1;fillColor=#f0a30a;fontColor=#000000;strokeColor=#BD7000;" vertex="1" parent="1">
          <mxGeometry x="400" y="270" width="70" height="30" as="geometry" />
        </mxCell>
        <mxCell id="yxyX-bRQcgZ53iR8kHNS-63" style="edgeStyle=orthogonalEdgeStyle;rounded=0;orthogonalLoop=1;jettySize=auto;html=1;exitX=0.5;exitY=0;exitDx=0;exitDy=0;endArrow=none;startFill=0;" edge="1" parent="1" source="yxyX-bRQcgZ53iR8kHNS-61">
          <mxGeometry relative="1" as="geometry">
            <mxPoint x="290" y="260" as="targetPoint" />
          </mxGeometry>
        </mxCell>
        <mxCell id="yxyX-bRQcgZ53iR8kHNS-64" value="Min. Max.&lt;div&gt;(1, N)&lt;/div&gt;" style="edgeLabel;html=1;align=center;verticalAlign=middle;resizable=0;points=[];" vertex="1" connectable="0" parent="yxyX-bRQcgZ53iR8kHNS-63">
          <mxGeometry x="-0.691" y="-1" relative="1" as="geometry">
            <mxPoint x="-9" as="offset" />
          </mxGeometry>
        </mxCell>
        <mxCell id="yxyX-bRQcgZ53iR8kHNS-61" value="Supervision" style="rhombus;whiteSpace=wrap;html=1;fillColor=#fad7ac;strokeColor=#b46504;fontColor=#000000;" vertex="1" parent="1">
          <mxGeometry x="360" y="140" width="80" height="80" as="geometry" />
        </mxCell>
        <mxCell id="yxyX-bRQcgZ53iR8kHNS-68" style="edgeStyle=orthogonalEdgeStyle;rounded=0;orthogonalLoop=1;jettySize=auto;html=1;exitX=0;exitY=0;exitDx=0;exitDy=0;entryX=1;entryY=1;entryDx=0;entryDy=0;endArrow=none;startFill=0;shape=link;" edge="1" parent="1" source="yxyX-bRQcgZ53iR8kHNS-66" target="yxyX-bRQcgZ53iR8kHNS-2">
          <mxGeometry relative="1" as="geometry">
            <Array as="points">
              <mxPoint x="260" y="430" />
              <mxPoint x="260" y="340" />
            </Array>
          </mxGeometry>
        </mxCell>
        <mxCell id="yxyX-bRQcgZ53iR8kHNS-70" value="Min. Max.&lt;div&gt;(1, N)&lt;/div&gt;" style="edgeLabel;html=1;align=center;verticalAlign=middle;resizable=0;points=[];" vertex="1" connectable="0" parent="yxyX-bRQcgZ53iR8kHNS-68">
          <mxGeometry x="-0.5468" y="4" relative="1" as="geometry">
            <mxPoint y="-4" as="offset" />
          </mxGeometry>
        </mxCell>
        <mxCell id="yxyX-bRQcgZ53iR8kHNS-69" style="edgeStyle=orthogonalEdgeStyle;rounded=0;orthogonalLoop=1;jettySize=auto;html=1;exitX=1;exitY=0;exitDx=0;exitDy=0;entryX=0;entryY=1;entryDx=0;entryDy=0;endArrow=none;startFill=0;shape=link;" edge="1" parent="1" source="yxyX-bRQcgZ53iR8kHNS-66" target="yxyX-bRQcgZ53iR8kHNS-3">
          <mxGeometry relative="1" as="geometry">
            <Array as="points">
              <mxPoint x="550" y="430" />
              <mxPoint x="550" y="340" />
            </Array>
          </mxGeometry>
        </mxCell>
        <mxCell id="yxyX-bRQcgZ53iR8kHNS-71" value="Min. Max.&lt;div&gt;(1, 1)&lt;/div&gt;" style="edgeLabel;html=1;align=center;verticalAlign=middle;resizable=0;points=[];" vertex="1" connectable="0" parent="yxyX-bRQcgZ53iR8kHNS-69">
          <mxGeometry x="-0.6866" y="3" relative="1" as="geometry">
            <mxPoint x="14" y="3" as="offset" />
          </mxGeometry>
        </mxCell>
        <mxCell id="yxyX-bRQcgZ53iR8kHNS-66" value="Work&lt;div&gt;For&lt;/div&gt;" style="rhombus;whiteSpace=wrap;html=1;fillColor=#fad7ac;strokeColor=#b46504;fontColor=#000000;" vertex="1" parent="1">
          <mxGeometry x="360" y="410" width="80" height="80" as="geometry" />
        </mxCell>
        <mxCell id="yxyX-bRQcgZ53iR8kHNS-82" style="edgeStyle=orthogonalEdgeStyle;rounded=0;orthogonalLoop=1;jettySize=auto;html=1;exitX=1;exitY=0;exitDx=0;exitDy=0;entryX=0;entryY=1;entryDx=0;entryDy=0;endArrow=none;startFill=0;" edge="1" parent="1" source="yxyX-bRQcgZ53iR8kHNS-72" target="yxyX-bRQcgZ53iR8kHNS-4">
          <mxGeometry relative="1" as="geometry">
            <Array as="points">
              <mxPoint x="190" y="635" />
              <mxPoint x="190" y="600" />
            </Array>
          </mxGeometry>
        </mxCell>
        <mxCell id="yxyX-bRQcgZ53iR8kHNS-72" value="Sex" style="ellipse;whiteSpace=wrap;html=1;fillColor=#f0a30a;fontColor=#000000;strokeColor=#BD7000;" vertex="1" parent="1">
          <mxGeometry x="110" y="630" width="60" height="30" as="geometry" />
        </mxCell>
        <mxCell id="yxyX-bRQcgZ53iR8kHNS-83" style="edgeStyle=orthogonalEdgeStyle;rounded=0;orthogonalLoop=1;jettySize=auto;html=1;exitX=0.5;exitY=0;exitDx=0;exitDy=0;entryX=0.5;entryY=1;entryDx=0;entryDy=0;endArrow=none;startFill=0;" edge="1" parent="1" source="yxyX-bRQcgZ53iR8kHNS-74" target="yxyX-bRQcgZ53iR8kHNS-4">
          <mxGeometry relative="1" as="geometry" />
        </mxCell>
        <mxCell id="yxyX-bRQcgZ53iR8kHNS-94" value="" style="edgeStyle=orthogonalEdgeStyle;rounded=0;orthogonalLoop=1;jettySize=auto;html=1;" edge="1" parent="1" source="yxyX-bRQcgZ53iR8kHNS-74" target="yxyX-bRQcgZ53iR8kHNS-4">
          <mxGeometry relative="1" as="geometry" />
        </mxCell>
        <mxCell id="yxyX-bRQcgZ53iR8kHNS-74" value="Birthday" style="ellipse;whiteSpace=wrap;html=1;fillColor=#f0a30a;fontColor=#000000;strokeColor=#BD7000;" vertex="1" parent="1">
          <mxGeometry x="195" y="630" width="60" height="30" as="geometry" />
        </mxCell>
        <mxCell id="yxyX-bRQcgZ53iR8kHNS-84" style="edgeStyle=orthogonalEdgeStyle;rounded=0;orthogonalLoop=1;jettySize=auto;html=1;exitX=0;exitY=0;exitDx=0;exitDy=0;entryX=1;entryY=1;entryDx=0;entryDy=0;endArrow=none;startFill=0;" edge="1" parent="1" source="yxyX-bRQcgZ53iR8kHNS-75" target="yxyX-bRQcgZ53iR8kHNS-4">
          <mxGeometry relative="1" as="geometry">
            <Array as="points">
              <mxPoint x="260" y="635" />
              <mxPoint x="260" y="600" />
            </Array>
          </mxGeometry>
        </mxCell>
        <mxCell id="yxyX-bRQcgZ53iR8kHNS-75" value="Relationship" style="ellipse;whiteSpace=wrap;html=1;fillColor=#f0a30a;fontColor=#000000;strokeColor=#BD7000;" vertex="1" parent="1">
          <mxGeometry x="270" y="630" width="90" height="30" as="geometry" />
        </mxCell>
        <mxCell id="yxyX-bRQcgZ53iR8kHNS-89" style="edgeStyle=orthogonalEdgeStyle;rounded=0;orthogonalLoop=1;jettySize=auto;html=1;exitX=0.5;exitY=0;exitDx=0;exitDy=0;entryX=0.25;entryY=1;entryDx=0;entryDy=0;endArrow=none;startFill=0;" edge="1" parent="1" source="yxyX-bRQcgZ53iR8kHNS-76" target="yxyX-bRQcgZ53iR8kHNS-5">
          <mxGeometry relative="1" as="geometry" />
        </mxCell>
        <mxCell id="yxyX-bRQcgZ53iR8kHNS-76" value="Name" style="ellipse;whiteSpace=wrap;html=1;strokeWidth=1;fontStyle=4;fillColor=#f0a30a;fontColor=#000000;strokeColor=#BD7000;" vertex="1" parent="1">
          <mxGeometry x="510" y="670" width="60" height="30" as="geometry" />
        </mxCell>
        <mxCell id="yxyX-bRQcgZ53iR8kHNS-77" value="Number" style="ellipse;whiteSpace=wrap;html=1;fontStyle=4;fillColor=#f0a30a;fontColor=#000000;strokeColor=#BD7000;" vertex="1" parent="1">
          <mxGeometry x="570" y="640" width="60" height="30" as="geometry" />
        </mxCell>
        <mxCell id="yxyX-bRQcgZ53iR8kHNS-81" style="edgeStyle=orthogonalEdgeStyle;rounded=0;orthogonalLoop=1;jettySize=auto;html=1;exitX=0;exitY=0;exitDx=0;exitDy=0;entryX=1;entryY=1;entryDx=0;entryDy=0;endArrow=none;startFill=0;" edge="1" parent="1" source="yxyX-bRQcgZ53iR8kHNS-78" target="yxyX-bRQcgZ53iR8kHNS-5">
          <mxGeometry relative="1" as="geometry">
            <Array as="points">
              <mxPoint x="620" y="635" />
              <mxPoint x="620" y="600" />
            </Array>
          </mxGeometry>
        </mxCell>
        <mxCell id="yxyX-bRQcgZ53iR8kHNS-78" value="Location" style="ellipse;whiteSpace=wrap;html=1;fillColor=#f0a30a;fontColor=#000000;strokeColor=#BD7000;" vertex="1" parent="1">
          <mxGeometry x="640" y="630" width="60" height="30" as="geometry" />
        </mxCell>
        <mxCell id="yxyX-bRQcgZ53iR8kHNS-86" style="edgeStyle=orthogonalEdgeStyle;rounded=0;orthogonalLoop=1;jettySize=auto;html=1;exitX=0;exitY=0.5;exitDx=0;exitDy=0;endArrow=none;startFill=0;shape=link;" edge="1" parent="1" source="yxyX-bRQcgZ53iR8kHNS-85">
          <mxGeometry relative="1" as="geometry">
            <mxPoint x="80" y="430" as="targetPoint" />
          </mxGeometry>
        </mxCell>
        <mxCell id="yxyX-bRQcgZ53iR8kHNS-90" value="&lt;span style=&quot;color: rgb(255, 255, 255); font-family: Helvetica; font-size: 11px; font-style: normal; font-variant-ligatures: normal; font-variant-caps: normal; font-weight: 400; letter-spacing: normal; orphans: 2; text-align: center; text-indent: 0px; text-transform: none; widows: 2; word-spacing: 0px; -webkit-text-stroke-width: 0px; white-space: nowrap; background-color: rgb(18, 18, 18); text-decoration-thickness: initial; text-decoration-style: initial; text-decoration-color: initial; display: inline !important; float: none;&quot;&gt;Min. Max.&lt;/span&gt;&lt;div style=&quot;forced-color-adjust: none; box-shadow: none !important; color: rgb(255, 255, 255); font-family: Helvetica; font-size: 11px; font-style: normal; font-variant-ligatures: normal; font-variant-caps: normal; font-weight: 400; letter-spacing: normal; orphans: 2; text-align: center; text-indent: 0px; text-transform: none; widows: 2; word-spacing: 0px; -webkit-text-stroke-width: 0px; white-space: nowrap; text-decoration-thickness: initial; text-decoration-style: initial; text-decoration-color: initial;&quot;&gt;(1, N)&lt;/div&gt;" style="edgeLabel;html=1;align=center;verticalAlign=middle;resizable=0;points=[];" vertex="1" connectable="0" parent="yxyX-bRQcgZ53iR8kHNS-86">
          <mxGeometry x="-0.9" y="4" relative="1" as="geometry">
            <mxPoint x="-8" y="-4" as="offset" />
          </mxGeometry>
        </mxCell>
        <mxCell id="yxyX-bRQcgZ53iR8kHNS-88" style="edgeStyle=orthogonalEdgeStyle;rounded=0;orthogonalLoop=1;jettySize=auto;html=1;exitX=1;exitY=0;exitDx=0;exitDy=0;entryX=0;entryY=0.5;entryDx=0;entryDy=0;endArrow=none;startFill=0;shape=link;" edge="1" parent="1" source="yxyX-bRQcgZ53iR8kHNS-85" target="yxyX-bRQcgZ53iR8kHNS-5">
          <mxGeometry relative="1" as="geometry" />
        </mxCell>
        <mxCell id="yxyX-bRQcgZ53iR8kHNS-91" value="Min. Max.&lt;div&gt;(1, N)&lt;/div&gt;" style="edgeLabel;html=1;align=center;verticalAlign=middle;resizable=0;points=[];" vertex="1" connectable="0" parent="yxyX-bRQcgZ53iR8kHNS-88">
          <mxGeometry x="-0.5878" y="-5" relative="1" as="geometry">
            <mxPoint x="-8" y="-15" as="offset" />
          </mxGeometry>
        </mxCell>
        <mxCell id="yxyX-bRQcgZ53iR8kHNS-93" style="edgeStyle=orthogonalEdgeStyle;rounded=0;orthogonalLoop=1;jettySize=auto;html=1;exitX=1;exitY=1;exitDx=0;exitDy=0;entryX=0;entryY=0;entryDx=0;entryDy=0;endArrow=none;startFill=0;" edge="1" parent="1" source="yxyX-bRQcgZ53iR8kHNS-85" target="yxyX-bRQcgZ53iR8kHNS-92">
          <mxGeometry relative="1" as="geometry" />
        </mxCell>
        <mxCell id="yxyX-bRQcgZ53iR8kHNS-85" value="Work&lt;div&gt;On&lt;/div&gt;" style="rhombus;whiteSpace=wrap;html=1;fillColor=#fad7ac;strokeColor=#b46504;fontColor=#000000;" vertex="1" parent="1">
          <mxGeometry x="334" y="660" width="80" height="80" as="geometry" />
        </mxCell>
        <mxCell id="yxyX-bRQcgZ53iR8kHNS-92" value="Hours" style="ellipse;whiteSpace=wrap;html=1;fillColor=#f0a30a;fontColor=#000000;strokeColor=#BD7000;" vertex="1" parent="1">
          <mxGeometry x="414" y="730" width="70" height="30" as="geometry" />
        </mxCell>
      </root>
    </mxGraphModel>
  </diagram>
</mxfile>
